<svg width="900" height="680" viewBox="0 0 900 680" fill="none" xmlns="http://www.w3.org/2000/svg">
  <rect width="900" height="680" rx="48" fill="#2B3561"/>
  <rect x="86" y="108" width="728" height="464" rx="34" fill="#F6CF8A"/>
  <path d="M450 108v464M86 340h728" stroke="#B5682C" stroke-width="8"/>
  <circle cx="450" cy="340" r="74" stroke="#B5682C" stroke-width="8"/>
  <circle cx="314" cy="222" r="50" fill="#F2653C"/>
  <rect x="286" y="276" width="56" height="152" rx="28" fill="#FFF1E8"/>
  <path d="M286 340l-76 70M342 340l84 62M304 428l-18 116M332 428l48 114" stroke="#FFF1E8" stroke-width="24" stroke-linecap="round"/>
  <circle cx="570" cy="198" r="22" fill="#F2653C"/>
  <path d="M554 198h32M570 182c4 4 6 9 6 16 0 7-2 12-6 16M570 182c-4 4-6 9-6 16 0 7 2 12 6 16" stroke="#171C20" stroke-width="4" stroke-linecap="round"/>
  <text x="58" y="78" fill="#FFF6EF" font-family="Fredoka, Arial, sans-serif" font-size="40" font-weight="700">Treino em quadra de basquete</text>
</svg>
