<svg width="900" height="680" viewBox="0 0 900 680" fill="none" xmlns="http://www.w3.org/2000/svg">
  <rect width="900" height="680" rx="48" fill="#143B2B"/>
  <rect x="84" y="92" width="732" height="496" rx="36" fill="#1E8C54"/>
  <path d="M450 92v496M84 340h732" stroke="#E6FAEE" stroke-width="8"/>
  <circle cx="450" cy="340" r="82" stroke="#E6FAEE" stroke-width="8"/>
  <circle cx="280" cy="250" r="48" fill="#F2653C"/>
  <rect x="254" y="304" width="52" height="148" rx="26" fill="#FFE0D4"/>
  <path d="M254 370l-78 86M306 368l84 70M270 452l-24 114M292 452l52 114" stroke="#FFE0D4" stroke-width="22" stroke-linecap="round"/>
  <circle cx="610" cy="214" r="44" fill="#FFFFFF"/>
  <rect x="586" y="266" width="48" height="138" rx="24" fill="#171C20"/>
  <path d="M586 324l-64 70M634 324l58 50M602 404l-16 104M622 404l44 98" stroke="#171C20" stroke-width="20" stroke-linecap="round"/>
  <text x="60" y="72" fill="#FFF6EF" font-family="Fredoka, Arial, sans-serif" font-size="40" font-weight="700">Society entre amigos</text>
</svg>
