<svg width="900" height="760" viewBox="0 0 900 760" fill="none" xmlns="http://www.w3.org/2000/svg">
  <defs>
    <linearGradient id="b" x1="88" y1="42" x2="768" y2="712" gradientUnits="userSpaceOnUse">
      <stop stop-color="#FFD77A"/>
      <stop offset="0.45" stop-color="#FF8D56"/>
      <stop offset="1" stop-color="#B6452E"/>
    </linearGradient>
  </defs>
  <rect width="900" height="760" rx="64" fill="url(#b)"/>
  <rect y="474" width="900" height="286" rx="0" fill="#F7C680"/>
  <circle cx="688" cy="146" r="88" fill="#FFF5D0"/>
  <path d="M154 486h594" stroke="#FFFCEB" stroke-width="8" stroke-dasharray="18 16"/>
  <circle cx="352" cy="300" r="52" fill="#FFF4EA"/>
  <rect x="326" y="352" width="52" height="146" rx="24" fill="#1E2327"/>
  <path d="M326 406l-82 84M378 408l84 56M342 498l-34 126M368 498l46 130" stroke="#1E2327" stroke-width="24" stroke-linecap="round"/>
  <circle cx="540" cy="270" r="46" fill="#171C20"/>
  <rect x="514" y="320" width="50" height="132" rx="24" fill="#FFF4EA"/>
  <path d="M514 378l-52 62M564 376l80 98M530 452l-16 116M556 452l42 122" stroke="#FFF4EA" stroke-width="22" stroke-linecap="round"/>
  <circle cx="450" cy="188" r="20" fill="#FFFFFF"/>
  <path d="M434 188h32M450 172c4 4 6 9 6 16 0 7-2 12-6 16M450 172c-4 4-6 9-6 16 0 7 2 12 6 16" stroke="#171C20" stroke-width="4" stroke-linecap="round"/>
  <rect x="84" y="64" width="236" height="56" rx="28" fill="#FFFFFF"/>
  <text x="122" y="100" fill="#F2653C" font-family="Nunito, Arial, sans-serif" font-size="30" font-weight="800">Beach Match</text>
</svg>
