<svg width="900" height="1100" viewBox="0 0 900 1100" fill="none" xmlns="http://www.w3.org/2000/svg">
  <defs>
    <linearGradient id="a" x1="90" y1="70" x2="780" y2="1030" gradientUnits="userSpaceOnUse">
      <stop stop-color="#173C2F"/>
      <stop offset="1" stop-color="#0D1F18"/>
    </linearGradient>
  </defs>
  <rect width="900" height="1100" rx="64" fill="url(#a)"/>
  <rect x="86" y="118" width="728" height="864" rx="42" fill="#1E8C54"/>
  <rect x="116" y="148" width="668" height="804" rx="32" stroke="#D6F5E2" stroke-width="8"/>
  <path d="M450 148v804M116 550h668" stroke="#D6F5E2" stroke-width="8"/>
  <circle cx="450" cy="550" r="104" stroke="#D6F5E2" stroke-width="8"/>
  <rect x="116" y="360" width="94" height="380" rx="8" stroke="#D6F5E2" stroke-width="8"/>
  <rect x="690" y="360" width="94" height="380" rx="8" stroke="#D6F5E2" stroke-width="8"/>
  <circle cx="270" cy="486" r="58" fill="#F2653C"/>
  <rect x="242" y="546" width="58" height="156" rx="28" fill="#FFD5C6"/>
  <path d="M242 622l-56 74M300 622l68 92M266 702l-44 112M296 702l34 116" stroke="#FFD5C6" stroke-width="26" stroke-linecap="round"/>
  <circle cx="570" cy="382" r="54" fill="#FFFFFF"/>
  <rect x="542" y="438" width="56" height="162" rx="28" fill="#FFE2D6"/>
  <path d="M542 514l-70 86M598 514l60 66M562 600l-18 120M592 600l58 114" stroke="#FFE2D6" stroke-width="24" stroke-linecap="round"/>
  <circle cx="514" cy="760" r="42" fill="#FFFFFF"/>
  <path d="M492 760h44M514 738c7 6 10 14 10 22 0 8-3 16-10 22M514 738c-7 6-10 14-10 22 0 8 3 16 10 22" stroke="#171C20" stroke-width="5" stroke-linecap="round"/>
  <rect x="80" y="60" width="214" height="54" rx="27" fill="#FFF6EF"/>
  <text x="116" y="97" fill="#F2653C" font-family="Nunito, Arial, sans-serif" font-size="28" font-weight="800">Society Night</text>
</svg>
