<svg width="160" height="160" viewBox="0 0 160 160" fill="none" xmlns="http://www.w3.org/2000/svg">
  <defs>
    <linearGradient id="bg" x1="18" y1="16" x2="146" y2="146" gradientUnits="userSpaceOnUse">
      <stop stop-color="#FFF4EE"/>
      <stop offset="1" stop-color="#FFD7C8"/>
    </linearGradient>
  </defs>
  <rect x="8" y="8" width="144" height="144" rx="38" fill="url(#bg)"/>
  <circle cx="68" cy="72" r="28" stroke="#F2653C" stroke-width="8"/>
  <path d="M46 72h44M68 50c7 6 10 14 10 22 0 8-3 16-10 22M68 50c-7 6-10 14-10 22 0 8 3 16 10 22M51 57c6 4 12 7 17 7 5 0 11-3 17-7M51 87c6-4 12-7 17-7 5 0 11 3 17 7" stroke="#F2653C" stroke-width="5" stroke-linecap="round"/>
  <path d="M88 92l24 24" stroke="#171C20" stroke-width="9" stroke-linecap="round"/>
  <circle cx="118" cy="122" r="8" fill="#171C20"/>
</svg>
