<svg width="460" height="340" viewBox="0 0 460 340" fill="none" xmlns="http://www.w3.org/2000/svg">
  <defs>
    <g id="basketball" transform="scale(2)">
      <path d="M3 12C3 10.0017 3.65127 8.15549 4.75313 6.66208M3 12C3 13.9931 3.64785 15.8348 4.74444 17.3261M3 12H21M4.75313 6.66208C6.39201 4.4408 9.02775 3 12 3M4.75313 6.66208C5.97869 7.42812 6.97956 8.34298 7.54328 9.70393C7.84481 10.4319 8 11.2121 8 12C8 12.788 7.84481 13.5682 7.54328 14.2961C6.96816 15.6846 5.96869 16.5246 4.74444 17.3261M12 3C14.9786 3 17.6192 4.44695 19.2573 6.6763M12 3V21M12 21C9.02249 21 6.38269 19.5541 4.74444 17.3261M12 21C14.9665 21 17.5977 19.5648 19.2373 17.3509M19.2573 6.6763C20.3529 8.1672 21 10.008 21 12M19.2573 6.6763C18.0306 7.47481 17.0319 8.31521 16.4567 9.70387C16.1552 10.4318 16 11.212 16 12C16 12.7879 16.1552 13.5681 16.4567 14.2961C17.0356 15.6937 18.0451 16.4972 19.2373 17.3509M21 12C21 14.0041 20.345 15.8552 19.2373 17.3509" stroke="#000" stroke-width="1.5" stroke-linecap="round" stroke-linejoin="round"/>
    </g>

    <g id="arena" transform="scale(2.2)">
      <path fill="#000" d="M2,21H22a1,1,0,0,0,1-1V4a1,1,0,0,0-1-1H2A1,1,0,0,0,1,4V20A1,1,0,0,0,2,21Zm19-7H19V10h2ZM13,5h8V8H18a1,1,0,0,0-1,1v6a1,1,0,0,0,1,1h3v3H13V15.858a3.981,3.981,0,0,0,0-7.716Zm1,7a2,2,0,1,1-2-2A2,2,0,0,1,14,12ZM3,10H5v4H3Zm0,6H6a1,1,0,0,0,1-1V9A1,1,0,0,0,6,8H3V5h8V8.142a3.981,3.981,0,0,0,0,7.716V19H3Z"/>
    </g>

    <g id="soccer-ball" transform="scale(0.21)">
      <path fill="#000" d="M231.76978,134.8335a8.01081,8.01081,0,0,0,.07861-1.23633Q231.99652,130.81689,232,128a103.4965,103.4965,0,0,0-22.96765-65.10937,7.99721,7.99721,0,0,0-1.39539-1.69776,104.47716,104.47716,0,0,0-41.09863-29.78662,7.94558,7.94558,0,0,0-1.14416-.44824,103.96223,103.96223,0,0,0-74.78968.00049,7.97953,7.97953,0,0,0-1.14245.44775A104.47726,104.47726,0,0,0,48.36353,61.19238a7.99972,7.99972,0,0,0-1.39612,1.69825A103.49872,103.49872,0,0,0,24,128q0,2.81982.1521,5.60352A7.99281,7.99281,0,0,0,24.23,134.8291a103.303,103.303,0,0,0,15.69409,48.41211,7.99155,7.99155,0,0,0,1.05615,1.64307,104.37857,104.37857,0,0,0,60.27588,43.62353c.10743.03565.21851.05762.32752.08887a104.21832,104.21832,0,0,0,52.82971.00049c.11011-.03125.22241-.05371.33093-.08936a104.38026,104.38026,0,0,0,60.27552-43.62353,7.99155,7.99155,0,0,0,1.05615-1.64307A103.30408,103.30408,0,0,0,231.76978,134.8335ZM68.53931,117.0918l13.1676,4.27832,12.738,39.2041L86.30713,171.7749l-34.6377-.01806a87.36716,87.36716,0,0,1-11.15771-34.2793Zm118.92151,0,28.02746,20.38574a87.36716,87.36716,0,0,1-11.15771,34.2793l-34.6377.01806-8.13782-11.20068,12.738-39.2041Zm5.73291-48.13819L182.51624,101.875l-13.16749,4.27832L136,81.92383V68.07861l28.04492-20.353A88.44244,88.44244,0,0,1,193.19373,68.95361ZM91.95532,47.72559,120,68.07861V81.92383L86.65125,106.15332,73.48376,101.875,62.8064,68.95361A88.44288,88.44288,0,0,1,91.95532,47.72559Zm18.02539,166.4165-10.72937-32.9624,8.13782-11.20117h41.22168l8.13782,11.20117-10.72925,32.9624a88.31128,88.31128,0,0,1-36.0387,0Z"/>
    </g>

    <g id="tennis" transform="scale(0.1)">
      <path fill="#000" d="M480.342,107.049c-6.022-24.4-18.971-46.976-37.327-65.331l-0.093-0.093l-0.078-0.07c-0.007-0.015-0.023-0.023-0.031-0.031l-0.21-0.203l-0.008,0.008c-16.452-16.421-35.805-28.27-57.234-34.955C371.794,2.145,357.519,0,342.892,0c-1.95,0-3.931,0.039-5.944,0.125l-0.679,0.023l0.718-0.023c-24.057,0.928-48.333,7.41-72.063,19.034c-23.301,11.381-45.15,27.295-64.972,47.109c-34.651,34.666-56.251,77.858-60.432,122.104c-0.46,4.938-0.694,9.931-0.694,14.915c0,3.292,0.132,6.576,0.328,9.876c-1.467,29.884-8.004,57.39-19.369,81.97c-9.408,20.376-22.294,39.074-38.309,55.635l-2.559,2.566c-4.36,4.376-12.302,12.021-24.612,24.088c-8.862,8.659-16.444,16.07-18.402,18.035c-1.552,1.56-3.526,3.822-5.25,6.998c-1.717,3.143-3.175,7.309-3.175,12.177c-0.07,7.138,3.37,14.814,9.875,21.186l17.388,17.388l0.733-0.741c4.696,2.949,9.665,4.602,14.424,4.556c4.883,0,9.049-1.467,12.184-3.182c3.167-1.732,5.438-3.698,7.006-5.266c2.036-2.02,9.361-9.54,18.02-18.363l0.015-0.008c11.967-12.247,19.557-20.134,23.987-24.556l2.614-2.575l-0.054,0.047c14.587-14.174,34.518-27.177,57.421-37.162c25.095-10.929,52.312-17.864,80.987-20.548c2.606,0.148,5.25,0.234,7.918,0.242c16.756-0.031,34.402-2.598,48.443-6.818c32.544-9.852,63.708-28.153,89.817-54.261c17.575-17.591,32.116-36.843,43.161-57.304c8.316-15.39,14.51-31.273,18.379-47.218c3.136-12.949,4.727-25.781,4.727-38.388C484.522,129.874,483.134,118.282,480.342,107.049z M73.815,433.22l-0.039,0.039l-2.028,1.56l-1.848,0.538c-0.679-0.062-2.2-0.007-5.827-3.486l-1.724-1.693l-1.88-1.864l-7.161-7.145l-0.624-0.632c-3.565-3.682-3.486-5.226-3.55-5.905l0.546-1.848l1.552-2.036l0.016-0.016c1.038-1.045,4.711-4.649,9.438-9.267l22.365,22.372C78.425,428.548,74.837,432.229,73.815,433.22z M93.106,413.562l-1.451,1.482c-0.358,0.374-0.679,0.694-1.03,1.053l-22.201-22.209c0.351-0.336,0.671-0.64,1.014-0.99c4.642-4.548,8.464-8.269,11.904-11.623l28.652,14.954C105.782,400.543,100.298,406.183,93.106,413.562z M118.591,387.578l-0.608,0.609l-28.488-14.869c1.833-1.786,3.448-3.385,4.758-4.696l2.59-2.598l0.07-0.069l0.039-0.039c4.68-4.829,9.095-9.876,13.292-15.048l23.636,23.643C128.444,378.702,123.28,383.038,118.591,387.578z M458.756,174.931c-3.408,14.002-8.9,28.192-16.389,42.046c-9.97,18.464-23.215,36.07-39.425,52.288c-23.589,23.573-51.687,40.025-80.776,48.84c-11.482,3.495-27.732,5.914-42.17,5.882c-2.59,0.008-5.109-0.062-7.528-0.21l-0.257-0.024l-0.663-0.031l-0.812,0.055l-0.203,0.023h-0.077c-31.008,2.863-60.635,10.368-88.016,22.31c-14.384,6.287-27.622,13.768-39.627,22.029l-25.992-26c8.76-11.928,16.436-24.542,22.622-37.912c12.645-27.357,19.783-57.741,21.358-90.2l0.008-0.25v-0.515v-0.374l-0.023-0.351c-0.211-3.074-0.304-6.163-0.304-9.252c0-4.322,0.203-8.636,0.601-12.887c3.596-38.536,22.684-77.329,54.176-108.82c18.3-18.293,38.232-32.732,59.184-42.966c21.358-10.461,42.654-16.039,63.396-16.858l0.679-0.031l-0.64,0.031c1.654-0.07,3.323-0.102,5.016-0.102c12.512,0,24.588,1.825,36.016,5.39c18.137,5.663,34.386,15.586,48.606,29.814l0.094,0.086l0.141,0.132c15.663,15.68,26.553,34.776,31.577,55.166c2.356,9.517,3.542,19.323,3.542,29.416C462.868,152.449,461.518,163.558,458.756,174.931z"/>
    </g>
  </defs>

  <use href="#arena" transform="translate(42 42) rotate(-10)"/>
  <use href="#arena" transform="translate(286 210) rotate(8)"/>
  <use href="#basketball" transform="translate(196 74) rotate(16)"/>
  <use href="#basketball" transform="translate(366 158) rotate(-8)"/>
  <use href="#soccer-ball" transform="translate(92 154) rotate(10)"/>
  <use href="#soccer-ball" transform="translate(244 246) rotate(-14)"/>
  <use href="#tennis" transform="translate(330 46) rotate(-16)"/>
  <use href="#tennis" transform="translate(48 252) rotate(13)"/>
</svg>
