<svg width="120" height="120" viewBox="0 0 120 120" fill="none" xmlns="http://www.w3.org/2000/svg">
  <circle cx="42" cy="42" r="16" fill="#F2653C"/>
  <circle cx="78" cy="42" r="16" fill="#FF9B7B"/>
  <path d="M18 92c2-18 14-30 30-30s28 12 30 30H18z" fill="#FFF6EF"/>
  <path d="M42 92c2-18 14-30 30-30s28 12 30 30H42z" fill="#F2653C"/>
  <circle cx="88" cy="86" r="14" fill="#171C20"/>
  <path d="M78 86h20M88 76c4 4 6 8 6 10s-2 6-6 10M88 76c-4 4-6 8-6 10s2 6 6 10" stroke="#FFF6EF" stroke-width="3.5" stroke-linecap="round"/>
</svg>
